PathFileType	4	(X/Y/Z)	C:/Users/beibeiliu/ov580/test_trc/capture2\sequence.9_training_dense_left.trc
DataRate	CameraRate	NumFrames	NumMarkers	Units	OrigDataRate	OrigDataStartFrame	OrigNumFrames
120	120	23	19	mm	120	289	384
Frame#	Time	ThumbCMC			ThumbMCP			ThumbIP			ThumbTip			IndexMCP			IndexPIP			IndexTip			MiddleMCP			MiddlePIP			MiddleTip			RingMCP			RingPIP			RingTip			PinkyMCP			PinkyPIP			PinkyTip			BackHand1			BackHand2			BackHand3	
		X0	Y0	Z0	X1	Y1	Z1	X2	Y2	Z2	X3	Y3	Z3	X4	Y4	Z4	X5	Y5	Z5	X6	Y6	Z6	X7	Y7	Z7	X8	Y8	Z8	X9	Y9	Z9	X10	Y10	Z10	X11	Y11	Z11	X12	Y12	Z12	X13	Y13	Z13	X14	Y14	Z14	X15	Y15	Z15	X16	Y16	Z16	X17	Y17	Z17	X18	Y18	Z18	
288	2.4	-60.984	-105.37	19.0833	-35.2682	-93.0181	13.1626	-19.1242	-80.188	-5.57593	-7.5918	-70.9901	-22.7641	-53.5196	-60.3659	-40.611	-47.7539	-43.999	-68.6322	-43.9685	-34.3415	-90.8436	-70.2236	-51.203	-49.9317	-65.293	-39.2708	-72.278	-59.9521	-26.8756	-99.5167	-88.198	-56.4566	-56.8143	-85.71	-46.3763	-75.3792	-78.3119	-32.1926	-97.0344	-103.815	-64.4205	-51.7939	-100.576	-58.1097	-70.3464	-92.2016	-46.7657	-96.8645	-102.022	-71.6211	-8.855	-113.767	-84.9278	19.9821	-73.8407	-83.1159	10.6725	
289	2.40833	-61.1574	-105.695	18.7621	-33.7279	-92.7004	14.2644	-21.1679	-83.8216	-6.31823	-4.98486	-74.5929	-18.1377	-53.3468	-59.8989	-44.3402	-42.8157	-47.2139	-67.4807	-43.5236	-36.8815	-88.4893	-70.9991	-50.7305	-52.4712	-63.1671	-39.7364	-75.5319	-58.7539	-28.5226	-100.264	-90.5135	-58.1156	-53.4925	-83.5813	-47.2071	-75.3827	-80.6835	-32.8094	-99.1869	-104.94	-66.5014	-50.4161	-101.719	-57.1649	-71.6106	-93.8773	-45.4012	-89.1946	-103.867	-72.5596	-6.01051	-111.671	-85.219	15.8496	-76.9189	-85.1539	12.4723	
290	2.41667	-66.3642	-107.929	18.1063	-41.3527	-102.256	13.5095	-23.2082	-89.0854	-6.70004	-9.62085	-80.6789	-19.6185	-54.7563	-63.8431	-43.2045	-47.1119	-53.3217	-64.253	-47.2816	-43.4228	-85.6965	-74.2224	-57.1903	-47.528	-66.4466	-44.7076	-70.1151	-59.1033	-30.3767	-98.1703	-88.6562	-58.1521	-52.4386	-86.8053	-46.222	-75.3041	-79.0798	-35.4113	-100.19	-111.902	-69.3005	-50.1135	-102.753	-60.7961	-67.4449	-93.3828	-45.7583	-87.5339	-109.24	-75.7763	-10.7286	-114.33	-87.1368	17.5503	-81.6072	-87.3659	13.8854	
291	2.425	-68.2601	-106.845	25.2171	-45.5848	-94.7359	12.3541	-28.8268	-84.0655	-8.45376	-17.0808	-77.0612	-24.8411	-60.3177	-67.0225	-44.0443	-56.3968	-57.9999	-62.646	-50.5354	-42.8645	-86.5865	-82.9367	-60.5833	-46.9029	-75.0164	-46.6501	-72.6883	-71.712	-34.8759	-96.4459	-101.491	-64.5204	-49.4338	-97.8155	-52.9351	-70.7766	-92.5928	-42.1316	-97.4202	-121.366	-75.5379	-44.3321	-113.703	-66.4685	-65.5709	-105.88	-55.9513	-84.486	-115.777	-77.1492	-5.33237	-120.683	-89.7809	25.7581	-84.7589	-87.0873	15.8777	
292	2.43333	-74.2479	-107.497	20.8867	-47.9238	-98.1465	10.0038	-35.2797	-85.6848	-13.1055	-24.8443	-79.8691	-25.2826	-71.8233	-64.1463	-42.6667	-62.4502	-54.2026	-63.9321	-59.9164	-44.8229	-88.3592	-90.65	-57.2109	-51.2702	-84.5823	-47.3224	-73.4094	-75.8299	-33.9888	-100.109	-114.232	-62.9877	-50.1328	-106.213	-53.1827	-72.1138	-101.703	-44.2823	-96.8265	-129.071	-74.341	-44.4169	-121.399	-62.2661	-66.0085	-114.526	-46.5179	-83.459	-124.823	-79.7621	-2.72568	-127.248	-92.1864	22.649	-94.4255	-84.1268	11.5727	
293	2.44167	-73.1509	-105.903	19.1413	-48.724	-96.8745	6.84538	-34.1607	-83.1212	-15.9613	-20.1417	-76.5052	-24.9204	-71.0777	-64.5741	-44.3123	-68.5998	-49.9371	-68.7175	-68.2341	-34.903	-87.1231	-91.6533	-57.2011	-52.4581	-88.1739	-45.2832	-73.5239	-82.8659	-26.4618	-102.106	-107.983	-60.9001	-57.5369	-104.13	-52.8111	-76.8014	-104.34	-37.6985	-100.36	-128.963	-70.5999	-47.4017	-122.634	-60.4643	-65.1308	-114.162	-45.5956	-88.3401	-121.985	-75.2634	-8.57302	-125.937	-85.0399	21.0336	-95.2232	-81.3954	10.8424	
294	2.45	-137.812	-10.2246	-12.4543	-129.698	15.9282	-27.3068	-133.835	32.863	-51.3524	-133.978	45.0474	-66.5396	-176.685	28.704	-65.6726	-190.697	40.0942	-88.637	-202.479	49.3167	-103.632	-199.766	24.7887	-74.2006	-209.563	35.119	-92.3353	-219.813	52.5035	-113.373	-210.356	9.69118	-75.2132	-220.712	19.4181	-92.2497	-233.929	33.0303	-112.028	-215.983	-13.1902	-68.2158	-226.692	0.615156	-86.9432	-238.221	14.0352	-97.7239	-196.961	-15.4695	-26.3803	-192.19	-31.1067	-5.44799	-172.882	-5.53748	-17.3056	
295	2.45833	-146.158	-7.93939	-15.014	-141.459	10.3455	-33.9966	-145.758	28.3218	-55.5386	-144.459	40.0989	-67.962	-190.014	30.1366	-68.8722	-202.945	35.1261	-87.5297	-216.501	42.9415	-104.589	-210.451	19.0351	-70.8213	-222.963	25.5644	-89.6839	-235.877	40.4833	-112.043	-221.818	-1.59091	-74.2597	-232.915	3.73769	-91.3948	-249.35	18.4447	-111.471	-228.009	-18.9782	-73.0315	-233.315	-11.528	-87.8431	-249.985	-2.04163	-101.29	-208.562	-23.5499	-30.662	-200.258	-38.7963	-5.83324	-180.496	-7.5454	-12.7733	
296	2.46667	-152.965	0.220298	-20.2069	-152.155	19.3664	-36.6004	-158.487	34.4353	-57.6662	-163.978	47.0578	-75.2179	-204.586	20.9771	-74.2036	-213.904	29.4459	-91.8635	-230.737	37.3967	-110.152	-222.148	9.14944	-75.1219	-232.809	23.2916	-95.7937	-245.797	32.4293	-114.197	-228.874	-8.05294	-75.0273	-243.53	-1.08726	-94.2569	-256.7	5.60449	-109.945	-230.155	-33.1197	-68.3543	-237.697	-25.5756	-85.3636	-252.049	-13.8029	-98.8174	-210.633	-29.0662	-27.1564	-194.649	-34.1541	-7.44944	-184.48	-6.15458	-16.9602	
297	2.475	-165.419	1.49243	-22.8546	-164.299	24.0148	-40.4192	-175.792	39.2165	-66.8513	-176.899	50.0797	-77.9859	-215.074	15.7144	-78.4608	-231.367	23.6337	-99.2512	-246.218	30.3646	-114.278	-233.246	7.30672	-83.0659	-245.681	12.3501	-101.385	-262.859	20.5724	-122.082	-236.97	-19.3731	-77.4434	-250.915	-15.4404	-95.4361	-271.624	-11.9148	-113.382	-232.5	-36.5133	-70.9388	-245.508	-28.1715	-87.8632	-263.491	-18.3887	-100.525	-221.325	-31.7688	-36.1913	-207.933	-34.0069	-11.6702	-197.163	-4.79747	-26.1673	
298	2.48333	-170.107	2.63639	-26.773	-173.61	15.1448	-48.4269	-181.35	29.8666	-66.3618	-185.324	43.9047	-79.5254	-224.254	6.42758	-74.7627	-240.552	8.05899	-95.7386	-259.035	11.5993	-115.956	-240.749	-12.3936	-79.1074	-253.411	-7.72161	-95.7209	-275.498	0.131449	-119.919	-240.135	-34.2813	-74.0864	-257.635	-32.1097	-92.0764	-275.811	-29.3937	-107.627	-237.095	-50.6101	-67.4489	-250.225	-46.0799	-82.4277	-270.749	-38.7529	-94.5585	-219.157	-41.3801	-32.5904	-204.164	-46.8397	-3.31435	-200.81	-13.8726	-18.3971	
299	2.49167	-176.893	0.587733	-30.2183	-185.415	25.8891	-48.1046	-198.149	32.9597	-67.9719	-207.998	49.2266	-83.0122	-239.231	1.47534	-81.9196	-256.452	-3.12328	-98.8172	-273.69	-5.13041	-114.485	-247.461	-15.2964	-81.2966	-264.382	-17.8314	-99.131	-287.345	-16.75	-121.985	-246.777	-34.2019	-79.3711	-266.279	-35.4678	-99.5442	-280.023	-28.9326	-116.964	-242.526	-55.4492	-72.2233	-254.506	-50.5294	-89.0811	-274.233	-45.863	-102.475	-222.988	-37.6541	-33.2713	-207.554	-42.2289	-11.8315	-204.116	-12.5518	-27.0867	
300	2.5	-180.263	-1.04478	-29.0102	-191.882	17.3517	-47.3855	-212.8	28.5753	-68.6577	-222.368	39.8941	-80.856	-245.227	-8.43829	-78.2722	-257.62	-8.0764	-94.213	-278.543	-14.0664	-112.596	-253.542	-25.4817	-77.7082	-268.532	-26.7683	-96.4993	-287.508	-31.8952	-115.704	-248.999	-47.0786	-72.3525	-265.585	-51.2064	-91.085	-282.39	-50.6061	-109.232	-241.566	-64.0342	-68.6114	-250.936	-60.2189	-84.3089	-267.801	-59.2164	-94.6206	-224.654	-49.7583	-28.3838	-199.782	-47.2259	-7.91707	-205.478	-18.518	-20.8353	
301	2.50833	-194.682	5.97126	-31.8147	-203.451	17.4052	-49.6893	-220.013	25.3327	-71.6297	-231.88	31.911	-88.5157	-249.192	-13.8945	-79.3464	-264.938	-17.6583	-97.6916	-283.532	-28.9854	-113.889	-255.162	-37.6363	-75.4894	-271.856	-37.8173	-96.6085	-292.785	-44.2167	-118.085	-249.775	-54.8149	-73.3639	-263.088	-62.8828	-87.8512	-283.956	-61.3206	-107.6	-236.083	-71.3784	-64.3673	-245.628	-69.23	-79.7936	-269.917	-72.6468	-95.9278	-221.855	-50.8546	-28.5507	-209.25	-47.2216	-5.31701	-215.845	-18.6399	-26.8752	
302	2.51667	-197.427	0.336368	-30.8044	-207.487	15.3773	-49.1079	-226.818	19.9538	-69.7721	-238.296	28.9593	-82.0019	-253.563	-26.2767	-77.204	-266.951	-33.0885	-95.2194	-286.079	-42.4812	-111.108	-259.751	-43.9691	-75.5369	-274.818	-51.4164	-92.5583	-293.713	-65.5677	-116.261	-250.951	-59.0994	-74.1352	-266.97	-64.7526	-90.7929	-282.642	-71.3826	-105.312	-236.358	-72.7744	-64.8367	-252.362	-78.0319	-80.953	-269.655	-83.1872	-90.7504	-221.767	-54.7087	-30.1432	-206.093	-51.6219	-6.56117	-217.823	-24.5451	-22.835	
303	2.525	-203.625	-1.81943	-29.767	-211.935	6.55563	-48.359	-234.608	14.4398	-68.6675	-249.796	25.464	-80.9357	-256.261	-36.6297	-74.2174	-268.518	-45.4558	-89.5542	-282.348	-56.7937	-103.528	-261.202	-54.6023	-73.9348	-274.854	-58.099	-89.5731	-293.946	-64.6727	-109.161	-246.719	-69.9502	-70.3688	-262.934	-76.5768	-89.0811	-280.356	-77.9148	-104.342	-230.855	-82.9362	-65.1157	-242.284	-81.4857	-79.9783	-268.4	-88.526	-92.9782	-221.355	-62.182	-26.8521	-205.643	-57.9655	-5.05946	-220.629	-30.4222	-20.4767	
304	2.53333	-206.522	-2.74512	-26.7124	-224.145	4.15913	-50.4636	-241.234	7.00571	-67.5538	-257.62	17.2312	-81.5654	-257.582	-44.6317	-72.7984	-272.574	-48.026	-89.9573	-285.702	-65.5937	-104.572	-256.321	-64.6495	-73.1944	-271.751	-70.8062	-89.8369	-290.725	-79.6762	-107.417	-244.727	-78.5966	-70.7745	-256.327	-84.2492	-85.2924	-279.113	-96.4034	-103.083	-227.605	-88.5886	-63.4955	-239.814	-94.2069	-75.0973	-259.392	-101.67	-83.9228	-216.739	-64.362	-28.6651	-207.207	-56.5077	-6.42905	-223.098	-36.5463	-20.5165	
305	2.54167	-206.074	-10.7259	-25.3436	-222.276	0.113935	-47.1942	-238.888	7.80583	-62.8782	-254.118	7.85969	-78.4094	-252.418	-48.9276	-67.3963	-266.56	-56.719	-85.7663	-281.062	-70.8673	-102.687	-250.756	-69.5437	-67.7303	-268.96	-82.7233	-89.7454	-282.599	-95.5613	-106.446	-240.023	-79.6211	-68.776	-253.918	-93.458	-84.1085	-277.103	-100.35	-101.312	-222.932	-92.5965	-63.6753	-237.42	-98.4406	-77.1421	-256.809	-106.637	-84.8837	-210.749	-73.2996	-28.2763	-199.219	-66.1507	-5.28774	-221.747	-40.7987	-15.8249	
306	2.55	-211.819	-6.31814	-27.3504	-229.039	0.254501	-49.1539	-245.201	2.98154	-62.3728	-266.643	5.11341	-79.5657	-255.309	-53.2009	-66.6977	-266.915	-64.8463	-83.4953	-282.14	-82.7811	-101.661	-247.76	-79.1736	-68.1669	-262.357	-91.007	-86.4883	-277.079	-103.731	-101.638	-235.577	-88.0476	-68.6146	-243.06	-100.662	-82.2599	-264.383	-111.805	-100.889	-215.032	-93.5608	-61.3288	-227.958	-100.338	-74.5911	-244.865	-114.437	-82.5986	-206.787	-71.3149	-23.1301	-192.353	-61.4507	-2.7905	-218.428	-37.8345	-14.9257	
307	2.55833	-202.686	-8.59306	-24.847	-226.671	-0.959878	-42.1409	-243.906	-4.68026	-58.0539	-263.033	-4.16339	-72.6887	-248.326	-58.52	-62.53	-261.349	-72.5287	-81.3925	-273.361	-87.2114	-94.8482	-248.003	-80.3628	-65.3657	-259.01	-93.8126	-83.8757	-275.768	-105.195	-103.436	-228.802	-90.3634	-64.8706	-242.861	-97.7216	-80.8445	-259.957	-112.601	-97.8847	-212.744	-93.3256	-60.4867	-226.229	-106.101	-76.0229	-240.519	-116.13	-82.7541	-204.341	-73.4164	-24.7383	-187.518	-64.4547	-3.68917	-210.754	-40.12	-13.6728	
308	2.56667	-201.443	-14.0881	-23.6736	-224.318	-4.51888	-40.5356	-242.929	-12.6033	-57.3856	-260.672	-15.8403	-72.6749	-244.331	-63.2075	-62.583	-256.902	-78.7669	-80.6539	-266.149	-96.5021	-94.5142	-237.921	-85.7835	-63.8739	-249.226	-98.0993	-79.9423	-265.686	-115.786	-100.866	-226.258	-94.9822	-66.7302	-239.066	-104.946	-81.9266	-250.045	-118.613	-95.2961	-207.002	-99.8156	-61.8431	-218.973	-107.612	-75.8882	-234.84	-122.411	-82.7055	-198.733	-74.0919	-20.594	-184.132	-62.3449	-4.24677	-210.564	-42.3342	-13.5604	
309	2.575	-212.657	-20.5798	-25.5519	-227.487	-17.3016	-44.8933	-251.561	-20.7862	-61.4706	-268.32	-23.4813	-76.3227	-244.875	-74.7305	-68.3386	-251.348	-90.3185	-81.3408	-262.169	-112.163	-96.8284	-229.249	-93.2102	-65.4888	-242.447	-106.658	-82.7411	-258.897	-125.587	-102.082	-212.98	-101.927	-65.7442	-221.343	-116.606	-79.2188	-238.45	-129.911	-95.9177	-190.305	-102.159	-57.9305	-205.477	-115.181	-71.6103	-221.924	-131.552	-81.7811	-192.028	-78.1516	-25.0704	-183.329	-68.7748	-4.13452	-211.496	-51.3833	-14.2597	
310	2.58333	-204.747	-24.0794	-22.6428	-223.946	-27.0586	-43.8946	-246.007	-36.8318	-61.3692	-257.311	-44.7167	-77.3922	-227.847	-86.1904	-64.8311	-235.39	-104.828	-81.5466	-240.803	-123.887	-94.6993	-213.891	-103.279	-63.5859	-221.393	-120.726	-80.8202	-232.436	-142.708	-101.142	-196.592	-110.338	-64.2462	-206.966	-126.331	-79.4222	-214.125	-143.509	-91.4362	-178.315	-102.781	-56.1266	-190.046	-119.734	-71.4779	-200.047	-138.084	-81.0727	-181.293	-81.7187	-24.2901	-171.744	-68.0752	-2.59138	-200.329	-59.1549	-13.5439	
